# xmcd CD database file
# Copyright (C) 1993-1998 Ti Kan
#
# Track frame offsets:
# 150
# 17535
# 34412
# 48150
# 77782
# 95800
# 108857
# 120335
# 133205
# 143692
# 161257
# 177510
# 188100
# 206595
# 220167
#
# Disc length: 3151 seconds
# Revision: 0
# Processed by: cddbd v1.4b41PL1 Copyright (c) Steve Scherf et al.
# Submitted via: CDSpectrumPro v3.3.333
#
DISCID=cb0c4d0f
DTITLE=Various Artist - Australia's Finest
DYEAR=1900
DGENRE=
TTITLE0=Jean Stafford - Sunshine Rain
TTITLE1=Darcy Leyear - Like your mama said
TTITLE2=Wayne Horsburgh - Can you hear those pioneers
TTITLE3=Phil Emmanuel - Crocodile Dundee 1&2
TTITLE4=Reg Lindsay - Country all the way
TTITLE5=Corinna Cordwell - Chime bells
TTITLE6=Rex Dallas - Yodelling around Australia
TTITLE7=Jean Stafford - Could it be you
TTITLE8=Wayne Horsburgh - It's a small world
TTITLE9=Darcy Leyear - I want to be all over you
TTITLE10=Phil Emmanuel - Kakadu sunrise
TTITLE11=Reg Lindsay - Ray Herman rodeo yodel
TTITLE12=Peter Horan - Crazy
TTITLE13=John McSweeney - Wings of a dove
TTITLE14=Darcy Leyear - Baby I'm drowning
EXTD=
EXTT0=
EXTT1=
EXTT2=
EXTT3=
EXTT4=
EXTT5=
EXTT6=
EXTT7=
EXTT8=
EXTT9=
EXTT10=
EXTT11=
EXTT12=
EXTT13=
EXTT14=
PLAYORDER=
